<?xml version="1.0"?>
<svg width="1280" height="800" xmlns="http://www.w3.org/2000/svg" xmlns:svg="http://www.w3.org/2000/svg">
 <!-- Created with SVG-edit - https://github.com/SVG-Edit/svgedit-->
 <g>
  <title>Layer 1</title>
  <rect fill="#FF0000" stroke-width="0" x="103" y="60.70834" width="31" height="40" id="mid-16777216" stroke="#000000"/>
  <ellipse fill="#FF0000" stroke-width="0" stroke-dasharray="null" stroke-linejoin="null" stroke-linecap="null" cx="119.33333" cy="170.33332" id="mid-16777221" rx="15" ry="20" stroke="#000000"/>
  <rect fill="#FF0000" stroke-width="0" x="188.83331" y="60.70834" width="31" height="40" stroke="#000000" id="mid-16777217"/>
  <rect fill="#FF0000" stroke-width="0" x="275.83331" y="60.70834" width="31" height="40" stroke="#000000" id="mid-16777218"/>
  <rect fill="#FF0000" stroke-width="0" x="368.83331" y="60.70834" width="31" height="40" stroke="#000000" id="mid-16777219"/>
  <rect fill="#FF0000" stroke-width="0" x="457.83331" y="60.70834" width="31" height="40" stroke="#000000" id="mid-16777220"/>
  <ellipse fill="#FF0000" stroke-width="0" stroke-dasharray="null" stroke-linejoin="null" stroke-linecap="null" cx="202.66665" cy="170.33334" rx="15" ry="20" stroke="#000000" id="mid-16777222"/>
  <ellipse fill="#FF0000" stroke-width="0" stroke-dasharray="null" stroke-linejoin="null" stroke-linecap="null" cx="288.66665" cy="170.33334" rx="15" ry="20" stroke="#000000" id="mid-16777223"/>
  <ellipse fill="#FF0000" stroke-width="0" stroke-dasharray="null" stroke-linejoin="null" stroke-linecap="null" cx="390.66665" cy="171.33334" rx="15" ry="20" stroke="#000000" id="mid-16777224"/>
  <ellipse fill="#FF0000" stroke-width="0" stroke-dasharray="null" stroke-linejoin="null" stroke-linecap="null" cx="475.66665" cy="170.33334" rx="15" ry="20" stroke="#000000" id="mid-16777225"/>
  <path fill="#ffffff" stroke-width="2" stroke-dasharray="null" stroke-linejoin="null" stroke-linecap="null" d="m905.291565,490.165497q17.072815,11.72702 34.106323,0m-30.406555,-23.157349c0,-1.8125 1.46936,-3.28064 3.281921,-3.28064c1.811096,0 3.280579,1.46814 3.280579,3.28064c0,1.812378 -1.469482,3.28186 -3.280579,3.28186c-1.812561,0 -3.281921,-1.469482 -3.281921,-3.28186m20.183289,0c0,-1.8125 1.469604,-3.28064 3.281921,-3.28064c1.811096,0 3.280701,1.46814 3.280701,3.28064c0,1.812378 -1.469604,3.28186 -3.280701,3.28186c-1.812317,0 -3.281921,-1.469482 -3.281921,-3.28186m-38.309692,9.421143l0,0c0,-17.397522 14.103027,-31.500366 31.499451,-31.500366c17.397644,0 31.500671,14.102844 31.500671,31.500366c0,17.396637 -14.103027,31.499908 -31.500671,31.499908c-17.396423,0 -31.499451,-14.103271 -31.499451,-31.499908zm0,0l0,0c0,-17.397522 14.103027,-31.500366 31.499451,-31.500366c17.397644,0 31.500671,14.102844 31.500671,31.500366c0,17.396637 -14.103027,31.499908 -31.500671,31.499908c-17.396423,0 -31.499451,-14.103271 -31.499451,-31.499908z" id="mid-16777235" stroke="#000000"/>
  <path fill="#ffffff" stroke="#000000" stroke-width="2" stroke-dasharray="null" stroke-linejoin="null" stroke-linecap="null" d="m642.040039,274.164337c-0.237122,-10.113739 -8.508057,-18.240311 -18.68103,-18.245468c-6.799194,0.002594 -12.737549,3.639297 -16.000549,9.064743c-1.533569,-0.842804 -3.299133,-1.33252 -5.180603,-1.33252c-5.873901,0.005157 -10.652466,4.654785 -10.866394,10.479736c-6.167664,2.025848 -10.631714,7.796661 -10.636902,14.655121c0,8.536377 6.925476,15.464447 15.464478,15.464447l0,-0.005157l40.913757,0c8.536377,0 15.464417,-6.92804 15.464417,-15.464417c-0.005188,-6.796631 -4.391907,-12.544281 -10.477173,-14.616486zm-4.987244,24.931274l-40.916382,0c-5.693481,-0.015503 -10.30188,-4.618713 -10.312195,-10.312225c-0.005127,-5.108429 3.737244,-9.325073 8.634277,-10.131805c0.683044,-0.110809 1.293884,-0.492279 1.693359,-1.067017c0.399536,-0.574799 0.546448,-1.281036 0.420166,-1.966583c-0.072205,-0.381439 -0.115967,-0.742279 -0.115967,-1.092804c0.010315,-3.157318 2.564453,-5.711548 5.721802,-5.716705c1.667603,0 3.136719,0.716522 4.208862,1.884064c0.600586,0.662384 1.512939,0.966522 2.389282,0.796448c0.881531,-0.170105 1.613464,-0.79126 1.927917,-1.623779c1.930481,-5.134216 6.861084,-8.794128 12.657654,-8.78894c7.471924,0.010284 13.51593,6.056854 13.533936,13.528809c0,0.414948 -0.023193,0.84024 -0.06958,1.280975c-0.126282,1.332489 0.786133,2.536163 2.100586,2.781006c4.794006,0.886627 8.438477,5.0672 8.430664,10.111176c-0.010254,5.696075 -4.610962,10.30188 -10.304382,10.317383zm-37.132751,25.008545c0,-2.87381 0.054138,-13.982422 0.054138,-14.000488c0.005188,-1.054138 -0.636658,-2.007751 -1.618591,-2.40213c-0.979431,-0.391754 -2.100586,-0.152069 -2.832642,0.618561c-0.015381,0.02063 -2.672729,2.830017 -5.363525,6.036316c-1.347961,1.616028 -2.701172,3.317108 -3.770752,4.886749c-1.028381,1.670166 -1.940796,2.747528 -2.090332,4.858429c0.007813,4.314545 3.494995,7.80954 7.814697,7.817261c4.309448,-0.010315 7.807007,-3.505249 7.807007,-7.814697zm-10.459106,0.115967c0.234497,-0.899475 2.786133,-4.430542 5.13678,-7.123901c0.064453,-0.074738 0.131409,-0.157257 0.195862,-0.229401c-0.012878,2.897003 -0.025757,5.912567 -0.025757,7.237335c0,1.461395 -1.188171,2.649567 -2.652161,2.654724c-1.427917,-0.005157 -2.587708,-1.13147 -2.654724,-2.538757zm29.521606,-0.115967c0,-2.87381 0.054138,-13.979858 0.054138,-13.9953c0.005188,-1.056763 -0.636658,-2.007813 -1.618591,-2.407318c-0.981995,-0.391754 -2.098022,-0.149475 -2.835205,0.623749c-0.015442,0.020599 -2.667603,2.819672 -5.360962,6.036316c-1.345459,1.605713 -2.698547,3.31192 -3.770752,4.881561c-1.028381,1.67276 -1.940796,2.752686 -2.085083,4.86615c0,4.309418 3.489807,7.804382 7.806946,7.804382c4.311951,-0.002563 7.809509,-3.500092 7.809509,-7.80954zm-10.464233,0.121155c0.237122,-0.899536 2.786133,-4.433167 5.136719,-7.126556c0.064453,-0.077271 0.128906,-0.154633 0.193359,-0.22937c-0.012939,2.89444 -0.028381,5.912598 -0.028381,7.234741c-0.005188,1.463989 -1.188171,2.647003 -2.649597,2.652161c-1.427856,-0.005157 -2.58252,-1.128906 -2.6521,-2.531006l0,0.000031zm28.109131,-16.526337c-0.97937,-0.394379 -2.103149,-0.154663 -2.832581,0.61853c-0.023132,0.02063 -2.672729,2.827423 -5.360962,6.036346c-1.347961,1.61087 -2.703674,3.311951 -3.768127,4.88678c-1.036133,1.672699 -1.94342,2.750061 -2.092896,4.860962c0,4.309448 3.489807,7.806946 7.809509,7.806946c4.312012,0 7.80188,-3.497498 7.80188,-7.806946c0,-2.87381 0.056702,-13.982422 0.056702,-13.997925c0.00769,-1.056732 -0.634033,-2.010345 -1.613525,-2.404694zm-3.587708,16.402618c-0.010315,1.463959 -1.193359,2.647003 -2.657349,2.65213c-1.425232,-0.005127 -2.58252,-1.128906 -2.649536,-2.531036c0.237122,-0.899475 2.786194,-4.433136 5.13678,-7.126495c0.064392,-0.072174 0.128845,-0.1521 0.190735,-0.226837c-0.010315,2.89444 -0.02063,5.90741 -0.02063,7.232208l0,0.000031z" id="mid-16777230"/>
  <path fill="#ffffff" stroke="#000000" stroke-width="2" stroke-dasharray="null" stroke-linejoin="null" stroke-linecap="null" d="m627.174561,522.929382c25.682251,0 46.5,-20.817749 46.5,-46.500458c0,-25.682312 -20.817749,-46.500031 -46.5,-46.500031c-25.682251,0 -46.5,20.817719 -46.5,46.500031c0,25.682709 20.817749,46.500458 46.5,46.500458zm7.478455,-77.612091l11.309998,11.309937l-19.804504,19.801697l19.804504,19.801971l-11.309998,11.309998l-31.108765,-31.111969l31.108765,-31.111633z" id="mid-16777233"/>
  <path fill="none" stroke="#000000" stroke-width="2" stroke-dasharray="null" stroke-linejoin="null" stroke-linecap="null" d="m925.454651,332.133026c-1.073425,0.114838 -2.151123,0.172668 -3.260803,0.172668l0,0c-1.037354,0 -1.998108,-0.036682 -2.958862,-0.133331l0,0l-8.252075,10.613007l-2.03418,-0.576019c-2.378784,-0.670746 -4.685059,-1.498077 -6.910645,-2.513672l0,0l-1.957764,-0.864044l0.501526,-13.338318c-1.728149,-1.230133 -3.3797,-2.592194 -4.91449,-4.088654l0,0l-13.051758,2.801636l-1.192505,-1.76593c-1.379639,-2.052917 -2.570007,-4.201813 -3.645569,-6.371094l0,0l-0.922546,-1.920837l8.868408,-9.807251c-0.535828,-2.072632 -0.92041,-4.223236 -1.111816,-6.411041l0,0l-11.746582,-6.199677l0.229614,-2.110779c0.229614,-2.514923 0.73114,-4.932648 1.305176,-7.236176l0,0l0.537781,-2.054291l13.092102,-1.822571c0.92041,-1.957733 2.032227,-3.839142 3.260803,-5.585358l0,0l-4.988953,-12.321686l1.532654,-1.478333c1.768494,-1.727142 3.647705,-3.282104 5.643677,-4.721176l0,0l1.730286,-1.227585l11.283264,7.100861c1.917419,-0.883179 3.915527,-1.613342 5.988098,-2.16925l0,0l4.068542,-12.7052l2.112915,-0.17424c1.152161,-0.075531 2.380737,-0.17218 3.722168,-0.17218l0,0c1.305176,0 2.533752,0.096649 3.685913,0.17218l0,0l2.112915,0.17424l4.145142,12.839081c1.955627,0.555939 3.913391,1.2659 5.758484,2.129974l0,0l11.436279,-7.215637l1.728149,1.247772c1.998108,1.439072 3.915527,2.994019 5.679932,4.721191l0,0l1.498535,1.478333l-5.144104,12.666107c1.115906,1.631348 2.110779,3.360535 2.992981,5.183411l0,0l13.515076,1.880066l0.537781,2.054291c0.574036,2.303528 1.075562,4.701233 1.305176,7.236176l0,0l0.229614,2.092651l-12.169556,6.42926c-0.191406,1.996033 -0.497437,3.953827 -0.997009,5.873322l0,0l9.176575,10.115021l-0.922546,1.919006c-1.075562,2.189606 -2.26593,4.338501 -3.645569,6.391418l0,0l-1.190369,1.747833l-13.400269,-2.861633c-1.419983,1.421967 -2.954773,2.725525 -4.568115,3.897369l0,0l0.501526,13.589142l-1.957764,0.882629c-2.225586,0.997498 -4.53186,1.842926 -6.910645,2.513672l0,0l-2.03418,0.576019l-8.292419,-10.652344l0,0l0,-0.000031zm10.632813,3.417053c0.73114,-0.250763 1.419983,-0.50058 2.112915,-0.767395l0,0l-0.461365,-12.84024l1.496582,-0.960358c2.225586,-1.480042 4.300293,-3.22467 6.102905,-5.220703l0,0l1.228577,-1.323608l12.669128,2.707031c0.384766,-0.63446 0.727051,-1.287018 1.111816,-1.957764l0,0l-8.675049,-9.579529l0.539917,-1.707428c0.765259,-2.458893 1.190369,-5.105927 1.341431,-7.849731l0,0l0.078552,-1.805695l11.476624,-6.084717c-0.114807,-0.728943 -0.229614,-1.457642 -0.384766,-2.187073l0,0l-12.820007,-1.765259l-0.692932,-1.670898c-1.035217,-2.475159 -2.378784,-4.777527 -3.98999,-6.92868l0,0l-1.077698,-1.419983l4.838074,-11.976044c-0.537781,-0.498535 -1.111816,-0.978882 -1.728149,-1.440186l0,0l-10.860291,6.812927l-1.613342,-0.844971c-2.342529,-1.245758 -4.914673,-2.187378 -7.637695,-2.801697l0,0l-1.730286,-0.401794l-3.913391,-12.169479c-0.384766,-0.019104 -0.769531,-0.019104 -1.115906,-0.019104l0,0c-0.382629,0 -0.767395,0 -1.152161,0.019104l0,0l-3.875183,12.091904l-1.768494,0.383667c-2.759277,0.57608 -5.371765,1.554962 -7.831055,2.802734l0,0l-1.609253,0.843933l-10.671021,-6.717224c-0.578125,0.461304 -1.154114,0.94165 -1.728149,1.440186l0,0l4.723267,11.64978l-1.115906,1.439209c-1.728149,2.226776 -3.148132,4.664764 -4.259949,7.293213l0,0l-0.652588,1.651672l-12.39917,1.72699c-0.155151,0.729431 -0.308167,1.45813 -0.422974,2.187073l0,0l11.093994,5.87323l0.078552,1.82431c0.114807,2.918121 0.61438,5.719025 1.456238,8.329926l0,0l0.537781,1.728271l-8.368835,9.271362c0.348511,0.670746 0.692932,1.323303 1.075562,1.957764l0,0l12.324707,-2.651978l1.224487,1.326477c1.883301,2.072571 4.070679,3.875732 6.413208,5.355743l0,0l1.53479,0.958649l-0.459229,12.648987c0.690796,0.266815 1.417847,0.516632 2.110779,0.767395l0,0l7.79071,-10.018433l1.804749,0.211548c1.34552,0.169922 2.650696,0.28476 3.955872,0.28476l0,0c1.379639,0 2.799622,-0.133301 4.257813,-0.326294l0,0l1.768494,-0.26825l7.86731,10.116699l0,0l0,-0.000031zm3.571106,-26.027039l1.689941,2.630676l-10.86438,7.082123l-3.877319,-5.94986l0,0c-1.419983,0.344452 -2.878174,0.55426 -4.412964,0.55426l0,0c-10.634766,0 -19.271606,-8.634979 -19.271606,-19.25116l0,0c0,-10.650177 8.636841,-19.269012 19.271606,-19.269012l0,0c10.630676,0 19.229126,8.618835 19.229126,19.269012l0,0c0,4.359528 -1.456238,8.410248 -3.915527,11.633301l0,0l2.151123,3.300659m-7.331482,1.017639l0.344421,-0.229919l-3.109924,-4.779236l1.802612,-1.785217c2.346619,-2.360321 3.766602,-5.586151 3.766602,-9.157227l0,0c0,-7.178101 -5.798828,-12.973755 -12.936951,-12.973755l0,0c-7.178467,0 -12.977295,5.795654 -12.977295,12.973755l0,0c0,7.141663 5.798828,12.936768 12.977295,12.958069l0,0c1.572998,0 3.107788,-0.326294 4.606323,-0.903473l0,0l2.378784,-0.901031l3.148132,4.798035l0,0z" id="mid-16777232"/>
  <path fill="#7f007f" stroke="#000000" stroke-width="2" stroke-dasharray="null" stroke-linejoin="null" stroke-linecap="null" d="m768.679016,259.009186c-0.733032,0 -1.381409,0.300537 -1.926575,0.843567c-0.550049,0.543365 -1.001648,1.321136 -1.376221,2.293091c-0.754089,1.942871 -1.219299,4.670197 -1.470642,7.939026c-0.251404,3.259644 -0.297607,7.059143 -0.191772,11.124512c-9.012817,3.698853 -27.294006,11.330902 -28.760437,13.035522c-1.95575,2.269165 -1.320313,4.87085 -0.537109,6.596924l30.051819,-6.115387c0.635376,7.971008 1.538391,15.865265 2.326782,22.050751c-2.939819,0.861237 -8.424622,2.556824 -9.558533,3.611633c-1.558777,1.451202 -1.558777,6.134277 -1.558777,6.134277l12.298462,-0.999084c0.289001,2.019775 0.472717,3.198151 0.472717,3.198151l0.017151,0.106354l0.093201,0l0.230225,0l0.098267,0l0.017212,-0.106354c0,0 0.178467,-1.178375 0.468384,-3.198151l12.302795,0.999084c0,0 0,-4.683075 -1.559875,-6.134277c-1.132813,-1.05481 -6.621948,-2.754761 -9.558472,-3.615906c0.784119,-6.168396 1.688171,-14.03064 2.32251,-21.975952l29.698792,6.044861c0.787598,-1.726074 1.418701,-4.327759 -0.532776,-6.596924c-1.449524,-1.683441 -19.287292,-9.147339 -28.411865,-12.892883c0.106995,-4.118652 0.068298,-7.968811 -0.187378,-11.267151l0,-0.008575c-0.255676,-3.264557 -0.715515,-5.991882 -1.469666,-7.93045c-0.379761,-0.971954 -0.827209,-1.749725 -1.372375,-2.293091c-0.550049,-0.54303 -1.197327,-0.843567 -1.925842,-0.843567l0,0z" id="mid-16777231" transform="rotate(90 768.1745605468751,293.9188537597657) "/>
  <text fill="#000000" stroke-width="0" stroke-dasharray="null" stroke-linejoin="null" stroke-linecap="null" x="174.839974" y="390.533564" id="mid-33554432" font-size="24" font-family="serif" text-anchor="middle" xml:space="preserve" font-weight="bold" transform="matrix(1.0377997915664283,0,0,0.7228666537520779,5.89716577956672,17.505590236506407) " stroke="#000000">xxxxxxxxxxxxx</text>
  <text fill="#000000" stroke-width="0" stroke-dasharray="null" stroke-linejoin="null" stroke-linecap="null" x="180.704472" y="389.225009" font-size="24" font-family="serif" text-anchor="middle" xml:space="preserve" font-weight="bold" transform="matrix(1.3592266994061886,0,0,0.9467526047651376,-32.208104042699574,11.380377370855953) " stroke="#000000" id="mid-33554433">xxxxxxxxxxxxx</text>
  <text fill="#000000" stroke-width="0" stroke-dasharray="null" stroke-linejoin="null" stroke-linecap="null" x="35.822772" y="475.365808" font-size="24" font-family="serif" text-anchor="middle" xml:space="preserve" font-weight="bold" transform="matrix(1.7062051250114503,0,0,1.1884361505508423,180.39351749804698,-105.3594424052485) " stroke="#000000" id="mid-33554434">xxxxxxxxxxxxx</text>
  <text fill="#000000" stroke-width="0" stroke-dasharray="null" stroke-linejoin="null" stroke-linecap="null" x="227.091217" y="524.208626" font-size="24" font-family="serif" text-anchor="middle" xml:space="preserve" font-weight="bold" transform="matrix(1.891930251083591,0,0,1.3178006980218058,-177.47858334463828,-108.15677605940098) " stroke="#000000" id="mid-50331648">xxxxxxxxxxxxx</text>
  <text fill="#000000" stroke-width="0" stroke-dasharray="null" stroke-linejoin="null" stroke-linecap="null" x="213.191515" y="519.10159" font-size="24" font-family="serif" text-anchor="middle" xml:space="preserve" font-weight="bold" transform="matrix(2.195143006203465,0,0,1.5289998054504395,-196.7999079473418,-137.44257279825433) " stroke="#000000" id="mid-50331649">xxxxxxxxxxxxx</text>
  <text fill="#000000" stroke-width="0" stroke-dasharray="null" stroke-linejoin="null" stroke-linecap="null" x="4.566594" y="597.60159" font-size="24" font-family="serif" text-anchor="middle" xml:space="preserve" font-weight="bold" transform="matrix(2.3394333823347884,0,0,1.6295034885406492,274.47327006564433,-241.32148895474253) " stroke="#000000" id="mid-50331650">xxxxxxxxxxxxx</text>
  <g id="svg_1">
   <rect fill="#ff0000" stroke="#000000" stroke-width="0" stroke-dasharray="null" stroke-linejoin="null" stroke-linecap="null" x="748.22868" y="444.42904" width="63" height="68" id="mid-16777234"/>
   <ellipse fill="#000000" stroke="#000000" stroke-width="0" stroke-dasharray="null" stroke-linejoin="null" stroke-linecap="null" cx="766.22868" cy="470.42904" id="svg_17" rx="9" ry="10"/>
   <ellipse fill="#000000" stroke="#000000" stroke-width="0" stroke-dasharray="null" stroke-linejoin="null" stroke-linecap="null" cx="793.22865" cy="470.42904" rx="9" ry="10" id="svg_19"/>
  </g>
  <text fill="#000000" stroke-width="0" stroke-dasharray="null" stroke-linejoin="null" stroke-linecap="null" x="225.639179" y="230.367629" font-size="24" font-family="serif" text-anchor="middle" xml:space="preserve" font-weight="bold" transform="matrix(0.7088140789411032,0,0,0.6116241351616124,818.065965966415,-112.72076217252052) " stroke="#000000" id="sys-send-time">xxxx-xx-xx xx:xx:xx</text>
  <text fill="#000000" stroke-width="0" stroke-dasharray="null" stroke-linejoin="null" stroke-linecap="null" x="940.924109" y="-358.229161" font-size="24" font-family="serif" text-anchor="middle" xml:space="preserve" font-weight="bold" transform="matrix(0.7088140789411032,0,0,0.6116241351616124,311.0659659664151,275.122926792323) " stroke="#000000" id="sys-recved-time">xxxx-xx-xx xx:xx:xx</text>
 </g>
</svg>