<svg width="450" height="150" version="1.1" xmlns="http://www.w3.org/2000/svg">
 <g>
  <title>Layer 1</title>
  <g fill-opacity="0" stroke="#000" stroke-dasharray="null" stroke-linecap="null" stroke-linejoin="null" stroke-width="5">
   <path id="m__0x01000011__m" d="m103.53 48.09c-5.1708-15.441-14.79-25.852-25.848-25.887-16.518 0.0496-29.87 23.174-29.902 51.759 0.03004 28.6 13.384 51.719 29.902 51.773 11.055-0.0347 20.672-10.441 25.845-25.882l11.35-11.329 0.40965-0.40673c-3.7556 30.009-19.153 52.498-37.605 52.508-21.265-0.01-38.496-29.845-38.499-66.664 0.0074-36.804 17.237-66.639 38.499-66.649 18.454 0.01 33.858 22.509 37.605 52.522l-0.40396-0.40177zm12.358 25.872-20.483 20.48v-11.393h-31.44v-18.159h31.44v-11.393l20.483 20.465z"/>
   <path id="m__0x01000014__m" d="m347.11 100.17c4.8231 15.553 14.207 26.177 25.261 26.46 16.515 0.32098 30.383-22.498 31.055-51.075 0.61164-28.593-12.22-52.006-28.733-52.431-11.053-0.21332-20.901 9.9746-26.419 25.295l-11.601 11.071-0.41868 0.39744c4.4279-29.917 20.326-52.055 38.773-51.651 21.259 0.48707 37.817 30.701 36.993 67.511-0.83268 36.794-18.728 66.235-39.984 65.768-18.45-0.42401-33.344-23.263-36.417-53.353l0.39484 0.41073zm-11.775-26.143 20.937-20.016-0.25561 11.39 31.432 0.70535-0.40739 18.154-31.432-0.70535-0.2556 11.39-20.018-20.92z"/>
   <path id="m__0x01000013__m" d="m258.47 99.47c4.8231 15.553 14.207 26.177 25.261 26.46 16.515 0.32098 30.383-22.498 31.055-51.075 0.61164-28.593-12.22-52.006-28.733-52.431-11.053-0.21332-20.901 9.9746-26.419 25.295l-11.601 11.071-0.41868 0.39744c4.4279-29.917 20.326-52.055 38.773-51.651 21.259 0.48707 37.817 30.701 36.993 67.511-0.83268 36.794-18.728 66.235-39.984 65.768-18.45-0.42401-33.344-23.263-36.417-53.353l0.39484 0.41073zm-11.775-26.143 20.937-20.016-0.25561 11.39 31.432 0.70535-0.40739 18.154-31.432-0.70535-0.2556 11.39-20.018-20.92z"/>
   <path id="m__0x01000012__m" d="m193.88 48.09c-5.1708-15.441-14.79-25.852-25.848-25.887-16.518 0.0496-29.87 23.174-29.902 51.759 0.03 28.6 13.384 51.719 29.902 51.773 11.055-0.0347 20.672-10.441 25.845-25.882l11.35-11.329 0.40965-0.40673c-3.7556 30.009-19.153 52.498-37.605 52.508-21.265-0.01-38.496-29.845-38.499-66.664 7e-3 -36.804 17.237-66.639 38.499-66.649 18.454 0.01 33.858 22.509 37.605 52.522l-0.40396-0.40177zm12.358 25.872-20.483 20.48v-11.393h-31.44v-18.159h31.44v-11.393l20.483 20.465z"/>
  </g>
 </g>
</svg>
